{"asset":{"version":"2.0","generator":"babylon.js glTF exporter for Maya 2018 v20191127.7"},"scene":0,"scenes":[{"nodes":[0,4],"extensions":{}}],"nodes":[{"children":[1],"translation":[0.0,0.0,0.0],"rotation":[0.0,0.0,0.0,1.0],"scale":[1.0,1.0,1.0],"name":"LSSX9110010003"},{"children":[2],"translation":[0.0,0.0,0.0],"rotation":[0.0,0.0,0.0,1.0],"scale":[1.0,1.0,1.0],"name":"LLSQ5ZS_chengyi"},{"children":[3],"translation":[0.0,0.0,0.0],"rotation":[0.0,0.0,0.0,1.0],"scale":[1.0,1.0,1.0],"name":"LLSQ5ZS_chengyi (1)"},{"mesh":0,"translation":[0.0,0.0,0.0],"rotation":[0.0,0.0,0.0,1.0],"scale":[1.0,1.0,1.0],"name":"LLSQ5ZS_chengyi_gaigou"},{"translation":[0.0,0.0,0.0],"rotation":[0.0,0.0,0.0,1.0],"scale":[1.0,1.0,1.0],"name":"Default light"}],"meshes":[{"primitives":[{"attributes":{"POSITION":1,"TANGENT":2,"NORMAL":3,"TEXCOORD_0":4},"indices":0,"mode":4,"material":0},{"attributes":{"POSITION":6,"TANGENT":7,"NORMAL":8,"TEXCOORD_0":9},"indices":5,"mode":4,"material":1}],"name":"LLSQ5ZS_chengyi_gaigou"}],"accessors":[{"bufferView":0,"componentType":5123,"count":3348,"type":"SCALAR","name":"accessorIndices"},{"bufferView":1,"componentType":5126,"count":607,"max":[16.9155388,153.7249,4.92207956],"min":[-17.1099243,110.331261,-17.8586655],"type":"VEC3","name":"accessorPositions"},{"bufferView":2,"componentType":5126,"count":607,"type":"VEC4","name":"accessorTangents"},{"bufferView":1,"byteOffset":7284,"componentType":5126,"count":607,"type":"VEC3","name":"accessorNormals"},{"bufferView":3,"componentType":5126,"count":607,"type":"VEC2","name":"accessorUVs"},{"bufferView":0,"byteOffset":6696,"componentType":5123,"count":1440,"type":"SCALAR","name":"accessorIndices"},{"bufferView":1,"byteOffset":14568,"componentType":5126,"count":284,"max":[0.350325227,145.163574,-9.938629],"min":[-0.6898821,126.0855,-17.7482777],"type":"VEC3","name":"accessorPositions"},{"bufferView":2,"byteOffset":9712,"componentType":5126,"count":284,"type":"VEC4","name":"accessorTangents"},{"bufferView":1,"byteOffset":17976,"componentType":5126,"count":284,"type":"VEC3","name":"accessorNormals"},{"bufferView":3,"byteOffset":4856,"componentType":5126,"count":284,"type":"VEC2","name":"accessorUVs"}],"bufferViews":[{"buffer":0,"byteLength":9576,"name":"bufferViewScalar"},{"buffer":0,"byteOffset":9576,"byteLength":21384,"byteStride":12,"name":"bufferViewFloatVec3"},{"buffer":0,"byteOffset":30960,"byteLength":14256,"byteStride":16,"name":"bufferViewFloatVec4"},{"buffer":0,"byteOffset":45216,"byteLength":7128,"byteStride":8,"name":"bufferViewFloatVec2"}],"buffers":[{"uri":"LLSQ5ZS_chengyi.bin","byteLength":52344}],"materials":[{"pbrMetallicRoughness":{"baseColorFactor":[0.8,0.8,0.8,1.0],"baseColorTexture":{"index":0,"texCoord":0},"metallicFactor":0.0,"roughnessFactor":1.0},"emissiveFactor":[0.0,0.0,0.0],"alphaMode":"OPAQUE","name":"aiStandardSurface6"},{"pbrMetallicRoughness":{"baseColorFactor":[1.0,1.0,1.0,1.0],"baseColorTexture":{"index":1,"texCoord":0},"metallicFactor":0.0,"roughnessFactor":1.0},"emissiveFactor":[0.0,0.0,0.0],"alphaMode":"OPAQUE","name":"aiStandardSurface7"}],"textures":[{"sampler":0,"source":0,"name":"LSSX_waitao_chengyi.jpg"},{"sampler":0,"source":1,"name":"kouzi.jpg"}],"images":[{"uri":"LSSX_waitao_chengyi.jpg"},{"uri":"kouzi.jpg"}],"samplers":[{"magFilter":9729,"minFilter":9987,"wrapS":10497,"wrapT":10497}]}